<?xml version="1.0" standalone="no"?>
<!DOCTYPE svg PUBLIC "-//W3C//DTD SVG 20010904//EN"
 "http://www.w3.org/TR/2001/REC-SVG-20010904/DTD/svg10.dtd">
<svg version="1.0" xmlns="http://www.w3.org/2000/svg"
 width="500.000000pt" height="499.000000pt" viewBox="0 0 500.000000 499.000000"
 preserveAspectRatio="xMidYMid meet">

<g transform="translate(0.000000,499.000000) scale(0.100000,-0.100000)"
fill="#000000" stroke="none">
<path d="M1740 4979 c-336 -22 -721 -168 -995 -378 -78 -59 -265 -246 -337
-336 -101 -126 -199 -305 -274 -499 -135 -349 -154 -760 -53 -1136 76 -284
236 -568 444 -788 334 -355 768 -554 1275 -587 275 -18 608 53 900 191 134 64
182 93 310 190 418 316 671 780 731 1339 44 412 -108 926 -378 1277 -71 93
-252 277 -333 338 -380 288 -813 419 -1290 389z m397 -475 c403 -70 759 -331
981 -720 98 -171 144 -322 164 -541 19 -220 -8 -423 -83 -618 -124 -322 -360
-588 -669 -754 -299 -160 -658 -202 -1000 -116 -115 29 -188 58 -300 120 -138
76 -220 135 -308 220 -269 257 -415 558 -441 911 -34 450 139 874 477 1170
326 286 748 403 1179 328z"/>
<path d="M1765 4200 c-291 -32 -574 -193 -746 -423 -124 -167 -213 -399 -221
-582 l-3 -70 150 0 150 0 8 70 c22 207 143 425 300 542 121 90 290 154 437
165 l35 3 0 150 c0 172 11 158 -110 145z"/>
<path d="M3675 1873 c-102 -155 -353 -410 -513 -523 -51 -35 -92 -67 -92 -70
0 -3 269 -273 598 -601 442 -440 610 -602 647 -621 71 -37 148 -51 251 -46
120 5 200 42 290 132 93 93 127 170 132 299 3 61 0 115 -9 145 -30 113 -49
133 -663 750 -325 325 -593 592 -597 592 -3 0 -23 -26 -44 -57z"/>
</g>
</svg>
